<svg xmlns="http://www.w3.org/2000/svg" width="168.302" height="97.473" viewBox="0 0 168.302 97.473"><g transform="translate(-314.64 -150.7)"><g transform="translate(347.757 229.913)"><path d="M407.188,356.082h3.978l-4.911,5.843,5.353,6.5H407.45l-4.141-5.352h-.033v5.352h-3.208V356.082h3.208v5.09h.033Z" transform="translate(-400.068 -355.672)" fill="#00a4da"/><path d="M455.515,361.377a6.843,6.843,0,1,1-6.825-6.351,6.563,6.563,0,0,1,6.825,6.351Zm-10.311.016a3.494,3.494,0,1,0,3.486-3.258,3.491,3.491,0,0,0-3.486,3.258Z" transform="translate(-425.662 -355.026)" fill="#00a4da"/><path d="M495.531,358.8v2.062h3.617v2.718h-3.617v2.127h3.814v2.718h-7.022V356.082h7.022V358.8Z" transform="translate(-456.559 -355.672)" fill="#00a4da"/><path d="M530.149,365.7H534v2.718h-7.054V356.082h3.208Z" transform="translate(-477.757 -355.672)" fill="#00a4da"/><rect width="3.207" height="12.341" transform="translate(61.705 0.409)" fill="#00a4da"/><path d="M584.32,356.082h3.209l5.875,7.545h.033v-7.545h3.208v12.341h-3.208l-5.875-7.562h-.033v7.562H584.32Z" transform="translate(-512.892 -355.672)" fill="#00a4da"/><path d="M644.243,360.886a7.93,7.93,0,0,1-1.26,4.878,5.966,5.966,0,0,1-5.091,2.423,6.239,6.239,0,0,1-6.581-6.516,6.31,6.31,0,0,1,6.7-6.645,5.736,5.736,0,0,1,5.565,3.454l-3.045,1.276a2.788,2.788,0,0,0-2.668-1.965c-2.111,0-3.208,2.014-3.208,3.9,0,1.915,1.145,3.863,3.257,3.863a2.334,2.334,0,0,0,2.585-2.145h-2.619v-2.52Z" transform="translate(-541.666 -355.026)" fill="#00a4da"/></g><path d="M321.1,199.611v12.782h6.543V174.876H334.1V257.5h-6.456V218.459H321.1v13.822h-6.46v-32.67Z" transform="translate(0 -14.801)" fill="#004969"/><path d="M-3211.358,724.01v-4.546h3.275v-1.242h-3.275V714.3h3.275v-1.242h-3.275v-3.921h3.275v-1.242h-3.275v-3.923h3.275v-1.242h-3.275v-3.922h3.275v-1.242h-3.275v-3.923h3.275V692.4h-3.275v-3.922h3.275v-1.242h-3.275v-3.921h4.91v-1.242h-4.91v-3.923h3.275v-1.242h-3.275v-3.922h3.275v-1.242h-3.275V667.82h3.275v-1.242h-3.275v-3.922h3.275v-1.242h-3.275v-3.922h3.275V656.25h-3.275v-3.923h3.275v-1.242h-3.275v-3.922h3.272v-1.242h-3.272v-4.543h6.455v39.333h.087l5.371-14.6h6.586l-6.023,15.08,6.8,17.591h-6.8l-5.934-16.636h-.087V724.01h-6.456Z" transform="translate(3675.024 -481.345)" fill="#004969"/><rect width="6.456" height="2.74" transform="translate(463.664 245.433)" fill="#004969"/><path d="M386.694,238.681l7.842,32.67h-6.889l-1.213-5.5h-6.543l-1.17,5.5h-6.412l7.583-32.67Zm-2.86,13.345-.737-4.94h-.086l-.694,4.94-1.386,8.71h4.549Z" transform="translate(-35.312 -53.871)" fill="#004969"/><path d="M445.005,238.681l3.163,19.282h.087l2.6-19.282h8.666l3.423,32.671h-6.63l-1.56-23.528h-.087l-1.04,8.059-2.773,15.469h-4.983l-3.163-15.642-1.083-7.279v-.607h-.086l-.954,23.528h-6.933l2.86-32.671Z" transform="translate(-72.876 -53.871)" fill="#004969"/><path d="M531.369,238.681v6.066h-6.543v7.106h5.762v6.067h-5.762v7.366h6.629v6.066H518.37V238.681Z" transform="translate(-124.751 -53.871)" fill="#004969"/><path d="M569.3,238.681v26.6h6.759v6.066h-13.22V238.681Z" transform="translate(-151.981 -53.871)" fill="#004969"/><rect width="6.456" height="32.671" transform="translate(427.272 184.81)" fill="#004969"/><path d="M640.535,238.681l8.059,19.715.088-.086a20.542,20.542,0,0,1-.521-4.94V238.681h6.456v32.67h-6.109l-7.972-19.715-.086.086.3,3.293.043,1.343V271.35h-6.457V238.68Z" transform="translate(-195.763 -53.871)" fill="#004969"/><path d="M701.224,150.7h2.167v2.167H705.5v2.167h-2.11v2.227h-2.167v-2.227h-2.168v-2.167h2.168Z" transform="translate(-235.391)" fill="#004969"/></g></svg>